<?xml version="1.0" standalone="no"?>
<!DOCTYPE svg PUBLIC "-//W3C//DTD SVG 1.1//EN" "http://www.w3.org/Graphics/SVG/1.1/DTD/svg11.dtd" >
<svg xmlns="http://www.w3.org/2000/svg">
<metadata>Generated by IcoMoon</metadata>
<defs>
<font id="icomoon" horiz-adv-x="1024">
<font-face units-per-em="1024" ascent="960" descent="-64" />
<missing-glyph horiz-adv-x="1024" />
<glyph unicode="&#x20;" horiz-adv-x="512" d="" />
<glyph unicode="&#xe900;" d="M1024 448c0-282.77-229.23-512-512-512s-512 229.23-512 512c0 282.77 229.23 512 512 512s512-229.23 512-512z" />
<glyph unicode="&#xe901;" d="M865.103 448c0-195.014-158.090-353.103-353.103-353.103s-353.103 158.090-353.103 353.103c0 195.014 158.090 353.103 353.103 353.103s353.103-158.090 353.103-353.103z" />
<glyph unicode="&#xe902;" d="M140.094 571.851c-0.768-9.291 0.324-18.642 3.213-27.507-52.886-14.722-83.822-69.528-69.1-122.414 7.687-27.615 26.924-50.567 52.769-62.965-4.396-8.207-7.108-17.212-7.98-26.483-2.432-41.991 29.588-78.023 71.574-80.543 11.84-0.98 23.753 0.633 34.904 4.732l58.103 153.812-1.095 125.793-24.223 91.542c-10.26 6.003-21.709 9.69-33.545 10.805-41.799 4.902-79.667-24.98-84.621-66.772z" />
<glyph unicode="&#xe903;" d="M847.448 712.828c0.128 38.877-31.285 70.495-70.159 70.621-25.88 0.084-49.719-14.038-62.078-36.776-87.243 44.328-193.9 9.536-238.228-77.707s-9.536-193.9 77.707-238.228 193.9-9.536 238.228 77.707c21.862 43.026 25.225 93.107 9.315 138.67 27.209 10.447 45.18 36.566 45.215 65.713v0z" />
<glyph unicode="&#xe904;" d="M697.379 589.241c0-43.878-35.57-79.448-79.448-79.448s-79.448 35.57-79.448 79.448c0 43.878 35.57 79.448 79.448 79.448s79.448-35.57 79.448-79.448z" />
<glyph unicode="&#xe905;" d="M529.655 253.793c0-97.507-79.045-176.552-176.552-176.552s-176.552 79.045-176.552 176.552c0 97.507 79.045 176.552 176.552 176.552s176.552-79.045 176.552-176.552z" />
<glyph unicode="&#xe906;" d="M335.448 483.328c0-39.003-31.618-70.621-70.621-70.621s-70.621 31.618-70.621 70.621c0 39.003 31.618 70.621 70.621 70.621s70.621-31.618 70.621-70.621z" />
<glyph unicode="&#xe907;" d="M346.218 630.219c0-39.003-31.618-70.621-70.621-70.621s-70.621 31.618-70.621 70.621c0 39.003 31.618 70.621 70.621 70.621s70.621-31.618 70.621-70.621z" />
<glyph unicode="&#xe908;" d="M879.351 374.59c-9.75-0.004-17.66 7.896-17.664 17.646 0 0.675 0.038 1.351 0.115 2.022l10.47 91.065c1.103 9.688 9.852 16.647 19.54 15.543 3.167-0.36 6.175-1.571 8.708-3.502l81.214-61.793c7.759-5.903 9.265-16.982 3.359-24.742-2.189-2.878-5.213-5.014-8.655-6.12l-91.701-29.308c-1.739-0.558-3.558-0.834-5.385-0.812v0z" />
<glyph unicode="&#xe909;" d="M576.653-16.49c-5.928 0.002-11.458 2.982-14.724 7.927l-50.617 76.429c-5.385 8.13-3.158 19.085 4.97 24.468 2.646 1.752 5.718 2.761 8.889 2.915l101.923 5.014c9.739 0.474 18.019-7.036 18.494-16.775 0.177-3.626-0.77-7.221-2.71-10.291l-51.2-81.443c-3.191-5.067-8.735-8.172-14.724-8.245h-0.3z" />
<glyph unicode="&#xe90a;" d="M388.414 342.069h35.31v-35.31h-35.31v35.31z" />
<glyph unicode="&#xe90b;" d="M441.379 289.103h35.31v-35.31h-35.31v35.31z" />
<glyph unicode="&#xe90c;" d="M388.414 218.483h35.31v-35.31h-35.31v35.31z" />
<glyph unicode="&#xe90d;" d="M247.172 218.483h35.31v-35.31h-35.31v35.31z" />
<glyph unicode="&#xe90e;" d="M282.483 342.069h35.31v-35.31h-35.31v35.31z" />
<glyph unicode="&#xe90f;" d="M317.793 165.517h35.31v-35.31h-35.31v35.31z" />
<glyph unicode="&#xe910;" d="M317.793 271.448h35.31v-35.31h-35.31v35.31z" />
<glyph unicode="&#xe911;" d="M661.133 54.696c-18.62-0.029-36.286 8.234-48.199 22.546l-0.124 0.141c-22.543 26.906-19.004 66.995 7.903 89.538 1.62 1.357 3.308 2.633 5.056 3.822l40.201 32.821c44.879 36.535 81.375 82.295 107.008 134.179l18.15 36.582c14.495 33.24 53.191 48.437 86.431 33.942s48.437-53.191 33.942-86.431v0l-24.223-51.076c-31.369-66.006-78.588-123.222-137.446-166.541l-53.866-39.495c-10.461-6.499-22.519-9.971-34.834-10.028v0z" />
<glyph unicode="&#xe912;" d="M1024 448c0-282.77-229.23-512-512-512s-512 229.23-512 512c0 282.77 229.23 512 512 512s512-229.23 512-512z" />
<glyph unicode="&#xe913;" d="M125.328 448c0 261.554 196.13 477.274 449.336 508.178-20.54 2.506-41.448 3.822-62.664 3.822-282.77 0-512-229.23-512-512s229.23-512 512-512c21.216 0 42.124 1.316 62.664 3.822-253.206 30.904-449.336 246.624-449.336 508.178z" />
<glyph unicode="&#xe914;" d="M902.87 448c0-215.872-174.998-390.87-390.87-390.87s-390.87 174.998-390.87 390.87c0 215.872 174.998 390.87 390.87 390.87s390.87-174.998 390.87-390.87z" />
<glyph unicode="&#xe915;" d="M246.458 448c0 194.538 142.128 355.858 328.208 385.848-20.406 3.288-41.33 5.024-62.664 5.024-215.874-0.002-390.872-175-390.872-390.872s174.998-390.87 390.87-390.87c21.334 0 42.258 1.734 62.664 5.024-186.078 29.988-328.206 191.306-328.206 385.846z" />
<glyph unicode="&#xe916;" d="M802.512 533.094c26.154 26.104 16.388 73.574-18.712 86.438-6.798 2.49-11.132 8.954-10.542 15.716 3.156 36.092-32.352 63.808-65.786 55.038-8.226-2.15-16.408 1.86-19.472 9.542-13.946 34.966-62.656 44.14-88.046 15.39-4.216-4.776-11.058-6.416-17.020-4.074-32.404 12.706-70.286-10.128-71.622-47.016l-0.418-4.036c48.54 6.194 87.562-19.456 104.412-56.058 6.63-14.402 16.664-27.622 29.82-39.292 30.024-26.632 51.112-62.694 58.508-107.674 32.546 15.236 69.15 9.52 94.206-21.422 24.914 22.864 23.384 55.958 4.652 76.128-5.66 6.098-5.652 15.66 0.020 21.32z" />
<glyph unicode="&#xe917;" d="M645.126 564.742c5.836-5.178 11.324-10.722 16.45-16.608 0.624 3.336 0.208 6.926-1.378 10.306-14.72 31.274 6.056 71.242 42.118 74.722 6.756 0.652 12.32 6.092 13.53 13.23 3.062 18.058 15.408 31.634 30.776 38.338-11.556 6.642-25.524 9.13-39.148 5.556-8.226-2.15-16.408 1.86-19.472 9.542-13.946 34.966-62.656 44.14-88.046 15.39-4.216-4.776-11.058-6.416-17.020-4.074-32.404 12.706-70.286-10.128-71.622-47.016l-0.418-4.036c48.54 6.194 87.562-19.456 104.412-56.058 6.628-14.402 16.66-27.622 29.818-39.292z" />
<glyph unicode="&#xe918;" d="M212.774 558.094c0 14.968 12.246 27.216 27.216 27.216h65.214v77.61c0 14.968-12.246 27.216-27.216 27.216h-138.67c-14.968 0-27.216-12.248-27.216-27.216v-138.67c0-14.968 12.246-27.216 27.216-27.216h73.456z" />
<glyph unicode="&#xe919;" d="M170.072 524.248v138.672c0 14.968 12.246 27.216 27.214 27.216h-57.968c-14.968 0-27.214-12.248-27.214-27.216v-138.67c0-14.968 12.246-27.216 27.214-27.216h57.968c-14.968 0-27.214 12.246-27.214 27.214z" />
<glyph unicode="&#xe91a;" d="M704.082 460.69c4.618-28.040 3.038-55.45-5.652-84.098 39.614 3.584 70.288-20.148 80.804-51.616l0.424-1.266 1.118 0.732c22.244 14.55 35.524 39.072 35.524 65.596-0.002 56.086-58.318 95.836-112.218 70.652z" />
<glyph unicode="&#xe91b;" d="M746.992 392.034c0 26.456 13.454 49.766 33.89 63.474-21.376 14.062-49.644 17.87-76.802 5.182 4.618-28.040 3.038-55.45-5.652-84.098 21.634 1.958 40.59-4.244 55.064-15.39-4.168 9.432-6.5 19.856-6.5 30.832z" />
<glyph unicode="&#xe91c;" d="M699.082 378.748c-8.124-26.846-21.304-49.386-39.482-69.756 41.214-6.216 66.668-40.12 66.668-75.708 0-2.276-0.11-4.588-0.338-7.070l-0.134-1.472 1.428 0.384c34.154 9.16 58.008 40.276 58.008 75.666-0.002 44.698-38.012 82.294-86.15 77.956z" />
<glyph unicode="&#xe91d;" d="M763.46 354.932c-15.69 16.408-38.574 26.142-64.378 23.816-8.122-26.846-21.304-49.384-39.482-69.756 17.884-2.696 32.792-10.612 43.948-21.61 3.092 33.444 27.732 60.628 59.912 67.55z" />
<glyph unicode="&#xe91e;" d="M661.24 310.828c-16.146-18.114-32.346-26.926-44.998-54.41-8.29-18.006-22.244-33.934-41.496-45.030 10.552-34.938 42.134-56.45 75.236-56.45 43.202 0 78.348 35.146 78.348 78.348-0.002 37.498-27.468 71.542-67.090 77.542z" />
<glyph unicode="&#xe91f;" d="M637.792 232.882c0 31.764 19.392 58.992 46.982 70.51-7.196 3.592-15.086 6.156-23.534 7.436-16.146-18.114-32.346-26.926-44.998-54.41-8.29-18.006-22.244-33.934-41.496-45.030 10.554-34.938 42.134-56.45 75.236-56.45 12.178 0 23.714 2.794 34.006 7.772-27.17 11.704-46.196 38.712-46.196 70.172z" />
<glyph unicode="&#xe920;" d="M346.484 430.442c0 52.194 19.982 97.15 55.242 130.268-0.3 14.712-12.406 28.72-27.186 28.72h-138.67c-14.968 0-27.216-12.246-27.216-27.214v-138.67c0-14.968 12.246-27.216 27.216-27.216h113.824c-2.104 11.046-3.21 22.448-3.21 34.112z" />
<glyph unicode="&#xe921;" d="M266.622 423.544v138.67c0 14.968 12.246 27.214 27.214 27.214h-57.968c-14.968 0-27.214-12.246-27.214-27.214v-138.67c0-14.968 12.246-27.216 27.214-27.216h57.968c-14.968 0-27.214 12.248-27.214 27.216z" />
<glyph unicode="&#xe922;" d="M646.492 566.282c-12.226 10.844-22.482 23.768-29.316 38.612-15.868 34.47-50.712 58.4-91.146 58.4s-75.278-23.93-91.146-58.4c-6.834-14.844-17.090-27.768-29.316-38.612-37.496-33.26-61.144-81.776-61.144-135.842s23.646-102.582 61.144-135.842c12.226-10.844 22.482-23.768 29.316-38.612 15.868-34.47 50.712-58.4 91.146-58.4s75.278 23.93 91.146 58.4c6.834 14.844 17.090 27.768 29.316 38.612 37.498 33.258 61.144 81.776 61.144 135.842s-23.646 102.584-61.144 135.842z" />
<glyph unicode="&#xe923;" d="M532.752 255.988c-6.834 14.844-17.090 27.768-29.316 38.612-37.498 33.258-61.144 81.776-61.144 135.842s23.646 102.582 61.144 135.842c12.226 10.844 22.482 23.768 29.316 38.612 8.894 19.32 23.752 35.326 42.212 45.666-14.474 8.108-31.164 12.732-48.934 12.732-40.434 0-75.28-23.93-91.146-58.4-6.834-14.844-17.090-27.768-29.316-38.612-37.498-33.26-61.144-81.776-61.144-135.842s23.646-102.582 61.144-135.842c12.226-10.844 22.482-23.768 29.316-38.612 15.868-34.47 50.712-58.4 91.146-58.4 17.77 0 34.458 4.624 48.934 12.732-18.46 10.342-33.32 26.348-42.212 45.67z" />
<glyph unicode="&#xe924;" d="M616.296 430.442c0-49.853-40.413-90.266-90.266-90.266s-90.266 40.413-90.266 90.266c0 49.853 40.413 90.266 90.266 90.266s90.266-40.413 90.266-90.266z" />
<glyph unicode="&#xe925;" d="M526.030 430.442c0 33.406 18.16 62.552 45.134 78.16-13.28 7.686-28.686 12.106-45.134 12.106-49.854 0-90.266-40.414-90.266-90.266s40.414-90.266 90.266-90.266c16.448 0 31.854 4.42 45.134 12.106-26.974 15.608-45.134 44.754-45.134 78.16z" />
<glyph unicode="&#xe926;" d="M929.782 30.225c-23.159-23.159-49.449-41.949-78.191-56.475-19.656-9.952-40.486-17.884-62.223-23.859-40.218-11.085-83.589-15.453-128.69-13.372-146.101 6.758-310.374 81.384-444.586 215.576-185.598 185.618-257.216 428.7-193.056 601.751 15.597 42.073 39.229 79.983 71.186 111.94 19.841 19.841 41.97 36.468 65.973 49.964 47.141 26.496 101.473 40.878 159.658 43.721h0.082c156.217 7.644 340.29-67.868 487.977-215.556 230.72-230.74 285.299-550.283 121.871-713.69z" />
<glyph unicode="&#xe927;" d="M929.782 30.225c-23.159-23.159-49.449-41.949-78.191-56.475-19.656-9.952-40.486-17.884-62.223-23.859-40.218-11.085-83.589-15.453-128.69-13.372-0.021 0-0.062 0.021-0.082 0.021 34.326 1.669 67.292 7.376 98.238 17.204 12.589 3.997 18.378 18.523 12.115 30.143l-60.575 112.228c-6.408 11.888-15.988 21.778-27.671 28.577-68.857 40.054-322.015 192.376-480.972 355.537-5.893 6.037-11.641 12.136-17.245 18.296l-35.686-20.707c-12.836-7.438-29.092 0.907-30.514 15.7l-7.191 75.904c-1.586 16.607-7.067 32.616-15.988 46.729-30.39 48.048-54.002 95.333-72.072 137.694 15.597 42.073 39.229 79.983 71.186 111.94 19.841 19.841 41.97 36.468 65.973 49.964 44.195-23.035 98.98-58.020 164.108-111.157 34.305-27.98 71.495-61.028 111.528-100.010 267.394-260.41 340.228-514.494 340.228-514.494l170.537-73.679c81.941 174.019 12.774 432.471-182.239 627.485-134.192 134.192-298.362 208.756-444.421 215.576 156.217 7.644 340.29-67.868 487.977-215.556 230.72-230.74 285.299-550.283 121.871-713.69z" />
<glyph unicode="&#xe928;" d="M831.368 281.342l-48.909 2.88-64.984 82.577 8.305 25.577 59.289-7.226c10.605-1.29 19.866-7.784 24.689-17.315l34.124-67.411c4.586-9.059-2.38-19.681-12.515-19.083z" />
<glyph unicode="&#xe929;" d="M843.883 300.425l-34.124 67.411c-4.823 9.531-14.085 16.026-24.689 17.315l-59.289 7.226-1.364-4.203 24.652-3.025c10.605-1.29 19.866-7.784 24.689-17.315l34.124-67.411c3.363-6.643 0.503-14.107-5.254-17.392l28.738-1.692c10.137-0.595 17.103 10.026 12.517 19.085z" />
<glyph unicode="&#xe92a;" d="M667.126 160.131l-1.69-43.803c-0.412-10.137-11.662-16.030-20.212-10.59l-63.768 40.548c-9.024 5.728-14.587 15.576-14.835 26.249l-1.236 52.663h0.021l50.85-12.712z" />
<glyph unicode="&#xe92b;" d="M667.126 160.131l-1.69-43.803c-0.412-10.137-11.662-16.030-20.212-10.59l-15.844 10.075c0 0.185 0.041 0.35 0.041 0.515l1.36 34.594c0.206 5.687-2.637 11.023-7.459 14.010-17.286 10.673-36.613 22.849-57.361 36.283l-0.556 23.983 50.85-12.712z" />
<glyph unicode="&#xe92c;" d="M819.614 190.088l-75.595-75.595s-1.422 0.804-4.121 2.328c-0.433 0.247-0.907 0.515-1.401 0.804-0.021 0-0.021 0.021-0.041 0.021-1.051 0.598-2.225 1.277-3.523 2.019-0.062 0.041-0.103 0.062-0.144 0.082-0.474 0.268-0.948 0.556-1.442 0.824-1.216 0.721-2.534 1.483-3.956 2.308-0.412 0.227-0.824 0.474-1.257 0.721-3.42 1.978-7.335 4.265-11.703 6.84-80.499 47.347-318.986 193.592-471.144 349.788-36.077 37.004-66.879 76.131-93.108 115.174-79.056 117.688-116.473 234.428-130.957 289.152-3.606 13.619 9.704 25.569 22.87 20.542l33.151-12.671-6.325 45.884c-0.68 4.904 0.742 9.498 3.503 13.001v0.021c3.729 4.78 9.91 7.541 16.545 6.367 40.424-7.149 133.615-36.221 276.893-153.106 34.305-27.98 71.495-61.028 111.528-100.010 23.756-23.138 45.967-46.214 66.735-69.084 45.225-49.758 83.548-98.444 115.896-144.287 120.078-170.207 157.597-301.123 157.597-301.123z" />
<glyph unicode="&#xe92d;" d="M819.614 190.088l-75.595-75.595s-1.422 0.804-4.121 2.328c-0.433 0.247-0.907 0.515-1.401 0.804-0.021 0-0.021 0.021-0.041 0.021-1.051 0.598-2.225 1.277-3.523 2.019-0.062 0.041-0.103 0.062-0.144 0.082-0.474 0.268-0.948 0.556-1.442 0.824-1.216 0.721-2.534 1.483-3.956 2.308-0.412 0.227-0.824 0.474-1.257 0.721-3.42 1.978-7.335 4.265-11.703 6.84l44.895 44.916c9.23 9.23 12.321 22.952 7.932 35.273-14.938 41.887-56.33 143.917-142.516 268.713-4.038 5.831-10.075 9.91-16.936 11.723-41.496 10.219-73.184 50.088-75.121 92.984-0.453 10.013-3.977 19.656-10.57 27.217-26.764 30.72-56.104 61.976-88.287 93.314-40.033 38.962-77.223 72.030-111.528 100.010-117.441 95.807-201.236 132.605-249.881 146.719v0.021c3.729 4.78 9.91 7.541 16.545 6.367 40.424-7.149 133.615-36.221 276.893-153.106 34.305-27.98 71.495-61.028 111.528-100.010 23.756-23.138 45.967-46.214 66.735-69.084 45.225-49.758 83.548-98.444 115.896-144.287 120.078-170.207 157.597-301.123 157.597-301.123z" />
<glyph unicode="&#xe92e;" d="M995.293 62.77l-51.083-28.256c-16.155-8.936-29.296-22.462-37.764-38.867l-22.6-43.789c-10.8-20.927-40.626-21.199-51.81-0.476l-88.013 163.101 75.599 75.599 173.112-74.789c22.334-9.647 23.851-40.746 2.559-52.523z" />
<glyph unicode="&#xe92f;" d="M992.732 115.295l-173.112 74.791-13.141-13.141 142.695-61.65c22.336-9.651 23.853-40.748 2.561-52.525l-51-28.208c-16.207-8.965-29.379-22.547-37.843-39.019l-10.821-21.061c-5.087-9.855-14.392-15.125-23.983-15.784l3.946-7.312c11.184-20.725 41.010-20.451 51.81 0.476l22.6 43.789c8.468 16.405 21.609 29.931 37.764 38.867l51.083 28.256c21.294 11.775 19.777 42.874-2.559 52.523z" />
<glyph unicode="&#xe930;" d="M256.66 515.111l-64.304-37.293c-12.836-7.459-29.092 0.907-30.514 15.7l-0.144 1.628-9.498 100.257 24.23 19.306 7.088 1.504 24.044 5.069 53.776-82.641c5.851-7.644 3.667-18.688-4.677-23.529z" />
<glyph unicode="&#xe931;" d="M256.66 515.111l-64.304-37.293c-12.836-7.459-29.092 0.907-30.514 15.7l-0.144 1.628c5.645-2.493 12.383-2.514 18.399 0.989l33.007 18.976c8.344 4.842 10.528 15.885 4.677 23.529l-43.165 66.344s3.688 4.821 8.901 11.229l24.044 5.069 53.776-82.641c5.851-7.644 3.667-18.688-4.677-23.529z" />
<glyph unicode="&#xe932;" d="M90.971 957.703c-6.647 1.176-12.82-1.613-16.557-6.399 46.393-13.442 124.722-47.526 233.705-133.71 9.842-7.784 13.155-21.345 7.831-32.708-15.142-32.313-40.661-71.544-83.585-114.468-24.31-24.31-56.827-44.234-89.937-60.132 3.189-4.957 6.424-9.919 9.76-14.884 43.764 17.686 91.128 42.411 123.733 75.016 52.084 52.084 78.541 98.735 91.929 134.181-143.268 116.874-236.47 145.95-276.88 153.104z" />
<glyph unicode="&#xe933;" d="M775.872 588.728c0-22.314-7.232-42.938-19.512-59.648l-15.679-3.338-6.16-18.523c-16.71-12.259-37.334-19.491-59.648-19.491-6.696 0-13.269 0.659-19.615 1.916-14.752 2.885-28.351 9.004-40.033 17.575l-5.275 16.977-16.586 4.883c-12.28 16.71-19.512 37.334-19.512 59.648s7.232 42.938 19.512 59.648l18.523 3.070 3.317 18.791c11.682 8.571 25.301 14.69 40.054 17.575 6.346 1.257 12.918 1.916 19.615 1.916 22.314 0 42.938-7.232 59.648-19.512l5.378-16.071 16.462-5.769c12.28-16.71 19.512-37.334 19.512-59.648z" />
<glyph unicode="&#xe934;" d="M775.872 588.728c0-22.314-7.232-42.938-19.512-59.648l-15.679-3.338-6.16-18.523c-16.71-12.259-37.334-19.491-59.648-19.491-6.696 0-13.269 0.659-19.615 1.916 46.399 9.127 81.405 50.005 81.405 99.083 0 49.057-35.006 89.956-81.405 99.083 6.346 1.257 12.918 1.916 19.615 1.916 22.314 0 42.938-7.232 59.648-19.512l5.378-16.071 16.462-5.769c12.28-16.71 19.512-37.334 19.512-59.648z" />
<glyph unicode="&#xe935;" d="M317.587 298.657h-50.772c-14.863 0-26.915 12.049-26.915 26.915v50.772c0 14.863 12.049 26.915 26.915 26.915h50.772c14.863 0 26.915-12.049 26.915-26.915v-50.772c0-14.866-12.051-26.915-26.915-26.915z" />
<glyph unicode="&#xe936;" d="M317.587 403.256h-43.558c14.863 0 26.915-12.049 26.915-26.913v-50.772c0-14.863-12.049-26.913-26.915-26.913h43.558c14.863 0 26.915 12.049 26.915 26.913v50.772c0 14.863-12.051 26.913-26.915 26.913z" />
<glyph unicode="&#xe937;" d="M301.291 180.91l-35.902 35.902c-10.51 10.51-10.51 27.551 0 38.061l35.902 35.902c10.51 10.51 27.551 10.51 38.061 0l35.902-35.902c10.51-10.51 10.51-27.551 0-38.061l-35.902-35.902c-10.51-10.51-27.551-10.51-38.061 0z" />
<glyph unicode="&#xe938;" d="M375.255 254.875l-35.902 35.902c-10.51 10.51-27.551 10.51-38.061 0l-2.749-2.749 33.153-33.153c10.51-10.51 10.51-27.551 0-38.061l-33.153-33.153 2.749-2.746c10.51-10.51 27.551-10.51 38.061 0l35.902 35.902c10.51 10.508 10.51 27.547 0 38.059z" />
<glyph unicode="&#xe939;" d="M74.379 824.104c-2.596-0.494-5.172-0.288-7.541 0.453-5.233 1.669-9.416 6.099-10.508 11.888l-12.445 68.713c0.062 0 0.144-0.041 0.206-0.062l33.151-12.671 9.457-50.273c1.586-8.386-3.935-16.462-12.321-18.049z" />
<glyph unicode="&#xe93a;" d="M180.278 868.394c0-8.098-6.565-14.664-14.664-14.664s-14.664 6.565-14.664 14.664c0 8.098 6.565 14.664 14.664 14.664s14.664-6.565 14.664-14.664z" />
<glyph unicode="&#xe93b;" d="M394.119 444.484c-8.536 0-15.453 6.917-15.453 15.453v213.079c0 8.536 6.917 15.453 15.453 15.453s15.453-6.917 15.453-15.453v-213.079c0-8.536-6.919-15.453-15.453-15.453z" />
<glyph unicode="&#xe93c;" d="M496.557 342.047c-8.536 0-15.453 6.917-15.453 15.453v213.079c0 8.536 6.917 15.453 15.453 15.453s15.453-6.917 15.453-15.453v-213.079c0-8.536-6.919-15.453-15.453-15.453z" />
<glyph unicode="&#xe93d;" d="M598.99 275.8c-8.536 0-15.453 6.917-15.453 15.453v140.7c0 8.536 6.917 15.453 15.453 15.453s15.453-6.917 15.453-15.453v-140.7c0-8.536-6.917-15.453-15.453-15.453z" />
<glyph unicode="&#xe93e;" d="M694.144 219.692c-8.536 0-15.453 6.917-15.453 15.453v62.61c0 8.536 6.917 15.453 15.453 15.453s15.453-6.917 15.453-15.453v-62.61c0-8.534-6.917-15.453-15.453-15.453z" />
<glyph unicode="&#xe93f;" d="M756.36 529.081c-6.099-8.365-13.475-15.741-21.84-21.86l-59.648 59.648-59.648-59.648c-8.365 6.119-15.762 13.495-21.86 21.86l59.648 59.648-59.648 59.648c6.099 8.344 13.475 15.741 21.84 21.86l59.668-59.668 59.648 59.648c8.365-6.099 15.741-13.495 21.84-21.84l-59.648-59.648z" />
<glyph unicode="&#xe940;" d="M730.771 554.67l25.59-25.59c-6.099-8.365-13.475-15.741-21.84-21.86l-19.306 19.306c6.614 8.427 11.888 17.905 15.556 28.145z" />
<glyph unicode="&#xe941;" d="M730.771 622.786c-3.667 10.24-8.963 19.718-15.556 28.124l19.306 19.306c8.365-6.099 15.741-13.495 21.84-21.84z" />
<glyph unicode="&#xe942;" d="M811.878 557.994l-91.878 210.006h-416l-91.878-210.006c-13.27-30.334-20.122-63.086-20.122-96.196v-397.798c0-35.346 28.654-64 64-64h512c35.346 0 64 28.654 64 64v397.798c0 33.11-6.852 65.862-20.122 96.196z" />
<glyph unicode="&#xe943;" d="M288 896h400c17.674 0 32-14.326 32-32v-96h-432c-17.674 0-32 14.326-32 32v64c0 17.674 14.326 32 32 32z" />
<glyph unicode="&#xe944;" d="M672 896h16c17.674 0 32-14.326 32-32v-96h-48c-17.674 0-32 14.326-32 32v64c0 17.674 14.326 32 32 32z" />
<glyph unicode="&#xe945;" d="M811.878 557.994l-91.878 210.006h-416l-14-32h384l-77.878-178.006c-13.27-30.334-20.122-63.086-20.122-96.198v-397.796c0-35.346 28.654-64 64-64h128c35.346 0 64 28.654 64 64v397.796c0 33.112-6.852 65.864-20.122 96.198z" />
<glyph unicode="&#xe946;" d="M224 213.334c-8.836 0-16 7.164-16 16v10.666c0 26.466-21.532 48-48 48-8.836 0-16 7.164-16 16s7.164 16 16 16c44.112 0 80-35.888 80-80v-10.666c0-8.836-7.164-16-16-16z" />
<glyph unicode="&#xe947;" d="M288 256c-24.592 0-47.014-9.258-64-24.464-16.986 15.206-39.408 24.464-64 24.464-53.020 0-96-42.98-96-96 0-90.666 64-160 112-160s48 0 48 0 0 0 48 0 112 69.334 112 160c0 53.020-42.98 96-96 96z" />
<glyph unicode="&#xe948;" d="M176 192c0-17.673-14.327-32-32-32s-32 14.327-32 32c0 17.673 14.327 32 32 32s32-14.327 32-32z" />
<glyph unicode="&#xe949;" d="M304 384c-44.182 0-80-35.818-80-80v-16h16c44.182 0 80 35.818 80 80 0 8.836-7.164 16-16 16z" />
<glyph unicode="&#xe94a;" d="M736 448h32v80c0 8.836-7.164 16-16 16h-96c-8.836 0-16-7.164-16-16s7.164-16 16-16h80z" />
<glyph unicode="&#xe94b;" d="M928 448h-256c-17.674 0-32-14.326-32-32v-384c0-17.674 14.326-32 32-32h256c17.674 0 32 14.326 32 32v384c0 17.674-14.326 32-32 32z" />
<glyph unicode="&#xe94c;" d="M928 448h-128c-17.674 0-32-14.326-32-32v-384c0-17.674 14.326-32 32-32h128c17.674 0 32 14.326 32 32v384c0 17.674-14.326 32-32 32z" />
<glyph unicode="&#xe94d;" d="M944 224c0-44.183-35.817-80-80-80s-80 35.817-80 80c0 44.183 35.817 80 80 80s80-35.817 80-80z" />
<glyph unicode="&#xe94e;" d="M1022.001 446c0-282.367-226.414-510.25-508.774-511.993-77.734-0.477-151.477 16.375-217.602 46.914-10.75 4.961-17.625 15.727-17.625 27.563 0 23.109-18.742 41.852-41.852 41.852h-51.102c-114.649 94.266-187.617 237.391-187.047 397.532 1.016 284.11 235.664 514.289 519.743 510.078 279.203-4.141 504.258-231.758 504.258-511.946z" />
<glyph unicode="&#xe94f;" d="M925.93 147.414c-32.492-45.188-72.156-84.852-117.344-117.344-0.859-0.023-1.719-0.070-2.586-0.070 0 0-476.289 0.039-576.305 0.063-12.273 0-24.18 4.125-33.867 11.664-38.758 30.164-73.063 65.773-101.766 105.688-0.016 0.859-0.063 1.719-0.063 2.586v592c0 0.867 0.047 1.727 0.063 2.594 32.5 45.18 72.164 84.852 117.344 117.344 0.867 0.016 1.727 0.063 2.594 0.063h592c0.867 0 1.727-0.047 2.586-0.063 45.188-32.5 84.852-72.164 117.344-117.344 0.023-0.867 0.070-1.727 0.070-2.594v-592c0-0.867-0.047-1.727-0.070-2.586z" />
<glyph unicode="&#xe950;" d="M925.93 744.594c-1.359 64.211-53.133 115.977-117.344 117.344-0.859 0.016-1.719 0.063-2.586 0.063h-508c-30.422 0-58.18-11.344-79.328-30h251.328c11.047 0 20-8.953 20-20v-306c0-22.094-17.906-40-40-40h-272v-40h272c22.094 0 40-17.906 40-40v-306c0-11.047-8.953-20-20-20h-251.328c21.148-18.656 48.906-30 79.328-30h508c0.867 0 1.727 0.047 2.586 0.070 45.188 32.492 84.852 72.156 117.344 117.344 0.023 0.859 0.070 1.719 0.070 2.586v592c0 0.867-0.047 1.727-0.070 2.594zM896.001 150c0-49.703-40.297-90-90-90h-256c-11.047 0-20 8.953-20 20v306c0 22.094 17.906 40 40 40h306c11.047 0 20-8.953 20-20zM896.001 486c0-11.047-8.953-20-20-20h-306c-22.094 0-40 17.906-40 40v306c0 11.047 8.953 20 20 20h256c49.703 0 90-40.289 90-90z" />
<glyph unicode="&#xe951;" d="M300 506.070c0-4.273-3.359-7.844-7.641-7.992-1.445-0.047-2.898-0.078-4.359-0.078-82.844 0-150 67.156-150 150s67.156 150 150 150c1.461 0 2.914-0.023 4.359-0.078 4.281-0.141 7.641-3.711 7.641-7.992z" />
<glyph unicode="&#xe952;" d="M288 556c4.047 0 8.039 0.211 12 0.523v-50.453c0-4.273-3.359-7.844-7.641-7.992-1.445-0.047-2.898-0.078-4.359-0.078-82.844 0-150 67.156-150 150 0 9.922 0.984 19.617 2.828 29 13.508-68.961 74.25-121 147.172-121z" />
<glyph unicode="&#xe953;" d="M300 506.023c0-4.352-3.477-7.945-7.82-8.016-0.359 0-0.711-0.008-1.070-0.008-61.367 0-111.109 67.156-111.109 150s49.742 150 111.109 150c0.359 0 0.711 0 1.070-0.008 4.344-0.070 7.82-3.664 7.82-8.008z" />
<glyph unicode="&#xe954;" d="M438 506.070c0-4.273-3.359-7.844-7.641-7.992-1.445-0.047-2.898-0.078-4.359-0.078-82.844 0-150 67.156-150 150s67.156 150 150 150c1.461 0 2.914-0.023 4.359-0.078 4.281-0.141 7.641-3.711 7.641-7.992z" />
<glyph unicode="&#xe955;" d="M426 556c4.047 0 8.039 0.211 12 0.523v-50.453c0-4.273-3.359-7.844-7.641-7.992-1.445-0.047-2.898-0.078-4.359-0.078-82.844 0-150 67.156-150 150 0 9.922 0.984 19.617 2.828 29 13.508-68.961 74.25-121 147.172-121z" />
<glyph unicode="&#xe956;" d="M438 506.023c0-4.352-3.477-7.945-7.82-8.016-0.359 0-0.711-0.008-1.070-0.008-61.367 0-111.109 67.156-111.109 150s49.742 150 111.109 150c0.359 0 0.711 0 1.070-0.008 4.344-0.070 7.82-3.664 7.82-8.008z" />
<glyph unicode="&#xe957;" d="M234.274 631.156c-7.109-3.344-15.555-1.875-21.109 3.68-7.273 7.273-7.273 19.063 0 26.328 5.555 5.563 14 7.031 21.109 3.68l31.891-15.031c1.523-0.727 1.523-2.898 0-3.625zM276.008 596.57l-33.18-11.922c-7.398-2.656-12.328-9.664-12.328-17.523 0-10.289 8.336-18.625 18.625-18.625 7.852 0 14.867 4.93 17.523 12.328l11.922 33.18c0.57 1.594-0.977 3.133-2.563 2.563zM266.649 735.172c-2.656 7.398-9.672 12.328-17.523 12.328-10.289 0-18.625-8.336-18.625-18.625 0-7.852 4.93-14.867 12.328-17.523l33.18-11.922c1.586-0.57 3.125 0.969 2.555 2.563zM404.164 646.188c1.523 0.727 1.523 2.898 0 3.625l-31.891 15.031c-7.109 3.352-15.555 1.875-21.109-3.68-7.273-7.266-7.273-19.063 0-26.328 5.555-5.555 14-7.023 21.109-3.68zM414.008 596.57l-33.18-11.922c-7.398-2.656-12.328-9.664-12.328-17.523 0-10.289 8.336-18.625 18.625-18.625 7.852 0 14.867 4.93 17.523 12.328l11.922 33.18c0.57 1.594-0.977 3.133-2.563 2.563zM380.828 711.352l33.18-11.914c1.594-0.57 3.133 0.969 2.555 2.555l-11.914 33.18c-2.656 7.398-9.672 12.328-17.523 12.328-10.289 0-18.625-8.336-18.625-18.625 0-7.852 4.93-14.867 12.328-17.523z" />
<glyph unicode="&#xe958;" d="M466.391 202.234c0-27.023-21.914-48.938-48.938-48.938h-97.883c-27.031 0-48.945 21.914-48.945 48.938 0 12.609 4.773 24.109 12.609 32.781-25.297 1.898-45.234 23.008-45.234 48.789 0 12.539 4.719 23.969 12.469 32.625-7.75 8.664-12.469 20.094-12.469 32.633 0 27.023 21.914 48.938 48.938 48.938h130.516c27.031 0 48.938-21.914 48.938-48.938 0-27.031-21.906-48.945-48.938-48.945h-8.156c-13.516 0-24.477-10.953-24.477-24.469 0-12.148 8.859-22.195 20.461-24.117-0.102-0.117-0.195-0.234-0.305-0.352h12.477c27.023 0 48.938-21.914 48.938-48.945z" />
<glyph unicode="&#xe959;" d="M347.328 145.82c0-25.063-20.32-45.383-45.375-45.383h-90.758c-25.063 0-45.383 20.32-45.383 45.383 0 11.688 4.43 22.344 11.688 30.391-23.453 1.766-41.938 21.336-41.938 45.242 0 11.617 4.375 22.219 11.563 30.25-7.188 8.023-11.563 18.625-11.563 30.25 0 25.063 20.32 45.375 45.375 45.375h121.016c25.055 0 45.375-20.313 45.375-45.375s-20.32-45.375-45.375-45.375h-7.563c-12.531 0-22.695-10.164-22.695-22.695 0-11.258 8.219-20.578 18.977-22.352-0.102-0.109-0.188-0.227-0.281-0.336h11.563c25.055 0 45.375-20.313 45.375-45.375z" />
<glyph unicode="&#xe95a;" d="M389.766 216.492c0-25.063-20.32-45.383-45.383-45.383h-90.75c-25.063 0-45.383 20.32-45.383 45.383 0 11.688 4.422 22.344 11.688 30.391-23.453 1.758-41.938 21.336-41.938 45.234 0 11.625 4.375 22.227 11.563 30.258-7.188 8.023-11.563 18.625-11.563 30.25 0 25.063 20.313 45.375 45.375 45.375h121.008c25.063 0 45.383-20.313 45.383-45.375s-20.32-45.383-45.383-45.383h-7.563c-12.523 0-22.688-10.156-22.688-22.688 0-11.258 8.211-20.578 18.969-22.359-0.094-0.109-0.18-0.219-0.281-0.328h11.57c25.055 0 45.375-20.313 45.375-45.375z" />
<glyph unicode="&#xe95b;" d="M358 469.516v-184.969c0-43.516-24.836-81.211-61.094-99.75v-204.453c-36.438 16.703-70.578 37.547-101.813 61.945v142.508c-36.258 18.539-61.094 56.234-61.094 99.75v184.969c0 4.688 3.797 8.484 8.484 8.484 25.305 0 45.82-20.516 45.82-45.82v-125.57c0-8.438 6.836-15.273 15.266-15.273 8.438 0 15.273 6.836 15.273 15.273v127.703c0 16.617 8.563 32.070 22.656 40.875 2.758 1.727 6.234 1.727 8.992 0 14.094-8.805 22.656-24.25 22.656-40.875v-127.703c0-8.438 6.836-15.273 15.273-15.273 8.43 0 15.266 6.836 15.266 15.273v125.57c0 25.305 20.516 45.82 45.82 45.82 4.695 0 8.492-3.797 8.492-8.484z" />
<glyph unicode="&#xe95c;" d="M249.297 182.695v-177.399c-18.883 11.188-36.992 23.539-54.211 36.992v142.508c-36.25 18.539-61.086 56.234-61.086 99.75v184.969c0 4.688 3.797 8.484 8.484 8.484 24.359 0 44.273-19.016 45.727-43.016v-113.102s0.031-9.766 0.094-11.242c0 0 0.227-7.055 0.648-8.453 3.297-28.719 17.469-54.133 38.289-72.031 13.875-11.922 22.055-29.164 22.055-47.461z" />
<glyph unicode="&#xe95d;" d="M743.68 640.5c-3.008-1.094-6-2.133-8.992-3.141 70.68-2.484 123.313-12 123.313-23.359v-8c0-12.172-33.977-30.336-83.984-40.469 51.383-10.93 85.945-23.797 84.688-33.102-0.156-1.148-0.867-6.391-1.070-7.93-2.367-17.508-77.422-37.969-164.992-26.133-87.563 11.828-154.492 51.477-152.125 68.992 0.203 1.539 0.914 6.773 1.070 7.93 0.563 4.188 8.336 7.141 21.469 8.844-15.836 7.594-25.055 15.539-25.055 21.867 0 1.555 0 6.836 0 8 0 6.039 14.898 11.555 39.438 15.773-0.188 0.336-0.391 0.672-0.516 1.016-0.531 1.461-2.344 6.422-2.742 7.516-4.539 12.453 59.078 47.086 142.094 77.359 3.125 1.141 6.219 2.242 9.305 3.336-8.961-0.633-18.172-1-27.578-1-88.367 0-160 30.328-160 48 0 1.555 0 6.836 0 8 0 13.258 71.633 24 160 24s160-10.742 160-24v-8c0-4.344-4.344-9.445-12.18-14.68 16.766 2.094 27.336 1.156 29-3.398 0.398-1.094 2.203-6.055 2.734-7.516 6.063-16.602-50.852-69.633-133.875-99.906z" />
<glyph unicode="&#xe95e;" d="M538 774c0 13.258 71.633 24 160 24s160-10.742 160-24c0-13.25-71.633-24-160-24s-160 10.75-160 24zM703.352 577.641c-87.563 11.836-159.992 10.781-161.766-2.352-1.781-13.141 67.773-33.383 155.344-45.211 87.57-11.836 159.992-10.781 161.774 2.352 1.773 13.133-67.781 33.375-155.352 45.211zM858.001 614c0 11.359-52.633 20.875-123.313 23.359-77.82-26.227-148.734-22.734-157.25-7.594-24.539-4.211-39.438-9.727-39.438-15.766 0-13.25 71.633-24 160-24s160 10.75 160 24zM874.821 747.922c-4.547 12.453-75.523-1.992-158.547-32.258-83.016-30.273-146.641-64.906-142.094-77.359 4.539-12.453 75.523 1.992 158.539 32.258 83.023 30.273 146.641 64.906 142.102 77.359z" />
<glyph unicode="&#xe95f;" d="M878.001 338c0 33.141-26.859 60-60 60-25.75 0-47.703-16.219-56.211-39-10.953 11.688-26.516 19-43.789 19s-32.836-7.313-43.789-19c-8.508 22.781-30.461 39-56.211 39-33.141 0-60-26.859-60-60 0-27.672 18.742-50.961 44.227-57.891-2.719-6.844-4.227-14.297-4.227-22.109 0-15.461 5.852-29.547 15.453-40.188-31.016-2.328-55.453-28.203-55.453-59.813 0-33.133 26.859-60 60-60 27.672 0 50.961 18.742 57.891 44.227 6.844-2.719 14.297-4.227 22.109-4.227 15.461 0 29.555 5.852 40.188 15.453 2.328-31.008 28.203-55.453 59.813-55.453 33.141 0 60 26.867 60 60 0 25.75-16.227 47.703-39 56.219 11.688 10.945 19 26.508 19 43.781 0 7.813-1.508 15.266-4.227 22.109 25.484 6.93 44.227 30.219 44.227 57.891zM718.102 254.539c-0.063 0.023-0.133 0.055-0.203 0.078 0.063 1.117 0.102 2.25 0.102 3.383 0-1.164 0.039-2.313 0.102-3.461z" />
<glyph unicode="&#xe960;" d="M687.961 257.156c-17.117-2.883-31.734-13.039-40.656-27.156-11.281 4.313-19.305 15.203-19.305 28 0 10.102 5.008 19.016 12.664 24.453 2.852 1.172 5.594 2.547 8.211 4.125 2.875 0.914 5.945 1.422 9.125 1.422 3.094 0 6.078-0.469 8.883-1.336 4.953-8.063 11.727-14.867 19.789-19.82 0.859-2.789 1.328-5.766 1.328-8.844 0-0.281-0.031-0.563-0.039-0.844zM808.001 258c0 10.102-5.008 19.016-12.664 24.453-2.852 1.172-5.594 2.547-8.211 4.125-2.875 0.914-5.945 1.422-9.125 1.422-3.094 0-6.078-0.469-8.883-1.336-4.953-8.063-11.727-14.867-19.789-19.813-0.859-2.797-1.328-5.773-1.328-8.852 0-16.57 13.43-30 30-30s30 13.43 30 30zM618 188c-16.57 0-30-13.43-30-30s13.43-30 30-30 30 13.43 30 30-13.43 30-30 30zM818.001 368c-16.57 0-30-13.43-30-30s13.43-30 30-30 30 13.43 30 30-13.43 30-30 30zM618 308c16.57 0 30 13.43 30 30s-13.43 30-30 30-30-13.43-30-30 13.43-30 30-30zM798.001 188c-16.57 0-30-13.43-30-30s13.43-30 30-30 30 13.43 30 30-13.43 30-30 30zM698 228c-16.57 0-30-13.43-30-30s13.43-30 30-30 30 13.43 30 30-13.43 30-30 30zM718 348c-16.57 0-30-13.43-30-30s13.43-30 30-30 30 13.43 30 30-13.43 30-30 30z" />
<glyph unicode="&#xe961;" d="M112 480h816v-352h-816z" />
<glyph unicode="&#xe962;" d="M832 384h-752c-17.673 0-32 14.327-32 32v0c0 17.673 14.327 32 32 32v0h752c17.673 0 32-14.327 32-32v0c0-17.673-14.327-32-32-32v0z" />
<glyph unicode="&#xe963;" d="M832 160h-752c-17.673 0-32 14.327-32 32v0c0 17.673 14.327 32 32 32v0h752c17.673 0 32-14.327 32-32v0c0-17.673-14.327-32-32-32v0z" />
<glyph unicode="&#xe964;" d="M128.002 319.694h768c26.51 0 48-21.49 48-48s-21.49-48-48-48h-768c-26.51 0-48 21.49-48 48s21.49 48 48 48z" />
<glyph unicode="&#xe965;" d="M384 256c0 0 0 0-0.001 0-8.837 0-16 7.163-16 16 0 4.418 1.791 8.419 4.687 11.314l48 48c2.896 2.896 6.896 4.686 11.314 4.686 8.837 0 16-7.164 16-16 0-4.418-1.791-8.418-4.686-11.314l-48-48c-2.888-2.895-6.881-4.686-11.292-4.686-0.008 0-0.016 0-0.023 0h0.001z" />
<glyph unicode="&#xe966;" d="M512 256c0 0 0 0-0.001 0-8.837 0-16 7.163-16 16 0 4.418 1.791 8.419 4.687 11.314l48 48c2.896 2.896 6.896 4.686 11.314 4.686 8.837 0 16-7.164 16-16 0-4.418-1.791-8.418-4.686-11.314l-48-48c-2.888-2.895-6.881-4.686-11.292-4.686-0.008 0-0.016 0-0.023 0h0.001z" />
<glyph unicode="&#xe967;" d="M256 256c0 0 0 0-0.001 0-8.837 0-16 7.163-16 16 0 4.418 1.791 8.419 4.687 11.314l48 48c2.896 2.896 6.896 4.686 11.314 4.686 8.837 0 16-7.164 16-16 0-4.418-1.791-8.418-4.686-11.314l-48-48c-2.888-2.895-6.882-4.686-11.294-4.686-0.007 0-0.014 0-0.022 0h0.001z" />
<glyph unicode="&#xe968;" d="M720 448h224c17.673 0 32-14.327 32-32s-14.327-32-32-32h-224c-17.673 0-32 14.327-32 32s14.327 32 32 32z" />
<glyph unicode="&#xe969;" d="M528 448h224c17.673 0 32-14.327 32-32s-14.327-32-32-32h-224c-17.673 0-32 14.327-32 32s14.327 32 32 32z" />
<glyph unicode="&#xe96a;" d="M288 448h224c17.673 0 32-14.327 32-32s-14.327-32-32-32h-224c-17.673 0-32 14.327-32 32s14.327 32 32 32z" />
<glyph unicode="&#xe96b;" d="M48 112h928v-128h-928z" />
<glyph unicode="&#xe96c;" d="M48 608h928v-112h-928z" />
<glyph unicode="&#xe96d;" d="M461.374 864.576l-413.374-256.576h928l-413.374 256.576c-14.383 9.059-31.877 14.434-50.626 14.434s-36.243-5.375-51.025-14.668l0.399 0.234z" />
<glyph unicode="&#xe96e;" d="M720 224h224c17.673 0 32-14.327 32-32s-14.327-32-32-32h-224c-17.673 0-32 14.327-32 32s14.327 32 32 32z" />
<glyph unicode="&#xe96f;" d="M528 224h224c17.673 0 32-14.327 32-32s-14.327-32-32-32h-224c-17.673 0-32 14.327-32 32s14.327 32 32 32z" />
<glyph unicode="&#xe970;" d="M288 224h224c17.673 0 32-14.327 32-32s-14.327-32-32-32h-224c-17.673 0-32 14.327-32 32s14.327 32 32 32z" />
<glyph unicode="&#xe971;" d="M976 100c-58 0-58-40-116-40s-58 40-116 40-58-40-116-40-58 40-116 40-58-40-116-40-58 40-116 40-58-40-116-40-58 40-116 40c0 33.137 26.863 60 60 60v0h808c33.137 0 60-26.863 60-60v0z" />
<glyph unicode="&#xe972;" d="M48 508c58 0 58 40 116 40s58-40 116-40 58 40 116 40 58-40 116-40 58 40 116 40 58-40 116-40 58 40 116 40 58-40 116-40c0-33.137-26.863-60-60-60v0h-808c-33.137 0-60 26.863-60 60v0z" />
<glyph unicode="&#xe973;" d="M528 720c0-8.837-7.163-16-16-16s-16 7.163-16 16c0 8.837 7.163 16 16 16s16-7.163 16-16z" />
<glyph unicode="&#xe974;" d="M288 32c0-8.837-7.163-16-16-16s-16 7.163-16 16c0 8.837 7.163 16 16 16s16-7.163 16-16z" />
<glyph unicode="&#xe975;" d="M528 48c0-8.837-7.163-16-16-16s-16 7.163-16 16c0 8.837 7.163 16 16 16s16-7.163 16-16z" />
<glyph unicode="&#xe976;" d="M752 32c0-8.837-7.163-16-16-16s-16 7.163-16 16c0 8.837 7.163 16 16 16s16-7.163 16-16z" />
<glyph unicode="&#xe977;" d="M768 672c0-8.837-7.163-16-16-16s-16 7.163-16 16c0 8.837 7.163 16 16 16s16-7.163 16-16z" />
<glyph unicode="&#xe978;" d="M640 736c0-8.837-7.163-16-16-16s-16 7.163-16 16c0 8.837 7.163 16 16 16s16-7.163 16-16z" />
<glyph unicode="&#xe979;" d="M608 672c0-8.837-7.163-16-16-16s-16 7.163-16 16c0 8.837 7.163 16 16 16s16-7.163 16-16z" />
<glyph unicode="&#xe97a;" d="M288 560c0-8.837-7.163-16-16-16s-16 7.163-16 16c0 8.837 7.163 16 16 16s16-7.163 16-16z" />
<glyph unicode="&#xe97b;" d="M528 560c0-8.837-7.163-16-16-16s-16 7.163-16 16c0 8.837 7.163 16 16 16s16-7.163 16-16z" />
<glyph unicode="&#xe97c;" d="M752 560c0-8.837-7.163-16-16-16s-16 7.163-16 16c0 8.837 7.163 16 16 16s16-7.163 16-16z" />
<glyph unicode="&#xe97d;" d="M464 688c0-8.837-7.163-16-16-16s-16 7.163-16 16c0 8.837 7.163 16 16 16s16-7.163 16-16z" />
<glyph unicode="&#xe97e;" d="M416 736c0-8.837-7.163-16-16-16s-16 7.163-16 16c0 8.837 7.163 16 16 16s16-7.163 16-16z" />
<glyph unicode="&#xe97f;" d="M336 688c0-8.837-7.163-16-16-16s-16 7.163-16 16c0 8.837 7.163 16 16 16s16-7.163 16-16z" />
<glyph unicode="&#xe980;" d="M544 784c0-8.837-7.163-16-16-16s-16 7.163-16 16c0 8.837 7.163 16 16 16s16-7.163 16-16z" />
<glyph unicode="&#xe981;" d="M672 656c0 0 0 0-0.001 0-8.837 0-16 7.163-16 16 0 4.418 1.791 8.419 4.687 11.314l112 112c2.896 2.896 6.896 4.686 11.314 4.686 8.837 0 16-7.164 16-16 0-4.418-1.791-8.418-4.686-11.314l-112-112c-2.888-2.895-6.881-4.686-11.292-4.686-0.008 0-0.016 0-0.023 0h0.001z" />
<glyph unicode="&#xe982;" d="M832 784c0-26.51-21.49-48-48-48s-48 21.49-48 48c0 26.51 21.49 48 48 48s48-21.49 48-48z" />
<glyph unicode="&#xe983;" d="M880 832c0-26.51-21.49-48-48-48s-48 21.49-48 48c0 26.51 21.49 48 48 48s48-21.49 48-48z" />
<glyph unicode="&#xe984;" d="M944 384h-864c-17.673 0-32-14.327-32-32v0c0-17.673 14.327-32 32-32v0h512c26.51 0 48-21.49 48-48v0-78.92c0-26.91 22.022-49.582 48.928-49.072 26.107 0.521 47.072 21.808 47.072 47.991 0 0 0 0.001 0 0.001v0 47.096c0 17.23 13.242 32.056 30.454 32.868 0.462 0.024 1.002 0.037 1.546 0.037 17.673 0 32-14.327 32-32 0 0 0-0.001 0-0.001v0c0-0.003 0-0.006 0-0.009 0-26.183 20.965-47.47 47.023-47.99l0.049-0.001c26.906-0.502 48.928 22.17 48.928 49.080v30.92c0 26.51 21.49 48 48 48v0c17.673 0 32 14.327 32 32v0c0 17.673-14.327 32-32 32v0z" />
<glyph unicode="&#xe985;" d="M112 448l208-96 192 96z" />
</font>
</defs>
</svg>
